{"title":"Planes: Fire &amp; Rescue 2014 1080p.BluRay.5.1.x264 . NVEE","uid":11542661,"size":1910271631,"categoryP":"video","categoryS":"hd___movies","magnet":"?xt=urn:btih:6bf35d67143315d9c3144011582d5772b5c4cef6&amp;dn=Planes%3A+Fire+%26amp%3B+Rescue+2014+1080p.BluRay.5.1.x264+.+NVEE&amp;tr=udp%3A%2F%2Ftracker.openbittorrent.com%3A80&amp;tr=udp%3A%2F%2Fopen.demonii.com%3A1337&amp;tr=udp%3A%2F%2Ftracker.coppersurfer.tk%3A6969&amp;tr=udp%3A%2F%2Fexodus.desync.com%3A6969","seeders":8,"leechers":0,"uploader":".NVEE","files":-1,"time":1416685084,"description":"\n\nQuick note :\nPlease seed to a Share Ratio of at least 3.3\nIf you require a torrent release I have posted in the past, not seeding,...\nPlease do not hesitate to inform me in any means you find fit to do so.\nTorrent requests also &quot;Always Welcome.&quot;\n\n\nFULL_INFOs\n\n99.99% --- SYNCED GUARANTEED \n\n&quot;Totally scrutinized / analyzed to be a verified torrent.&quot;\n___________________________________________\n\nSource : Blu-ray ~ 1080p\n\n\n\nSpoken Language : English\n\nAudio : 6 ~ Channels Only\n\n\nSubs Info :\n\nx2 ~ English .srt\n\nAll .srt UTF-8 .idx &amp; .ass subs can be turned On/Off\n_____________________________________\n---------------------------------------------------------------------------------\n\nGeneral Metadata\n\nComplete name : Planes: Fire &amp; Rescue.2014.804p.BluRay.5.1.x264 . NVEE.mp4\nFormat : MPEG-4\nFormat profile : Base Media\nCodec ID : isom\nFile size : 1.78 GiB\nDuration : 1h 23mn\nOverall bit rate : 3 045 Kbps\nEncoded date : UTC 2014-11-17 21:55:13\nTagged date : UTC 2014-11-17 21:55:13\n\n\nVideo\n\nID : 1\nFormat : AVC\nFormat/Info : Advanced Video Codec\nFormat profile : &lt;a class=&quot;__cf_email__&quot; href=&quot;/cdn-cgi/l/email-protection&quot; data-cfemail=&quot;0149686669414d352f30&quot;&gt;[email&amp;#160;protected]&lt;/a&gt;&lt;script cf-hash='f9e31' type=&quot;text/javascript&quot;&gt;\n/* &lt;![CDATA[ */!function(){try{var t=&quot;currentScript&quot;in document?document.currentScript:function(){for(var t=document.getElementsByTagName(&quot;script&quot;),e=t.length;e--;)if(t[e].getAttribute(&quot;cf-hash&quot;))return t[e]}();if(t&amp;&amp;t.previousSibling){var e,r,n,i,c=t.previousSibling,a=c.getAttribute(&quot;data-cfemail&quot;);if(a){for(e=&quot;&quot;,r=parseInt(a.substr(0,2),16),n=2;a.length-n;n+=2)i=parseInt(a.substr(n,2),16)^r,e+=String.fromCharCode(i);e=document.createTextNode(e),c.parentNode.replaceChild(e,c)}}}catch(u){}}();/* ]]&gt; */&lt;/script&gt;\nFormat settings, CABAC : Yes\nFormat settings, ReFrames : 3 frames\nCodec ID : avc1\nCodec ID/Info : Advanced Video Coding\nDuration : 1h 23mn\nBit rate : 2 404 Kbps\nMaximum bit rate : 12.1 Mbps\nWidth : 1 920 pixels\nHeight : 804 pixels\nDisplay aspect ratio : 2.40:1\nFrame rate mode : Constant\nFrame rate : 23.976 fps\nColor space : YUV\nChroma subsampling : 4:2:0\nBit depth : 8 bits\nScan type : Progressive\nBits/(Pixel*Frame) : 0.065\nStream size : 1.40 GiB (79%)\nWriting library : x264 core 142 r2479 dd79a61\nEncoded from Physical Blu-ray / Region B\n\n\nAudio\n\nID : 2\nFormat : AC-3\nFormat/Info : Audio Coding 3\nMode extension : CM (complete main)\nFormat settings, Endianness : Big\nCodec ID : ac-3\nDuration : 1h 23mn\nBit rate mode : Constant\nBit rate : 640 Kbps\nChannel(s) : 6 channels\nChannel positions : Front: L C R, Side: L R, LFE\nSampling rate : 48.0 KHz\nBit depth : 16 bits\nCompression mode : Lossy\nStream size : 383 MiB (21%)\nLanguage : English\nEncoded date : UTC 2014-11-17 22:01:46\nTagged date : UTC 2014-11-17 22:01:55\nEncoded from Physical Blu-ray 6 Channel audio &quot;Always&quot;.\n\n\nEnj0y !","torrent":{"xt":"urn:btih:6bf35d67143315d9c3144011582d5772b5c4cef6","amp;dn":"Planes%3A+Fire+%26amp%3B+Rescue+2014+1080p.BluRay.5.1.x264+.+NVEE","amp;tr":["udp%3A%2F%2Ftracker.openbittorrent.com%3A80","udp%3A%2F%2Fopen.demonii.com%3A1337","udp%3A%2F%2Ftracker.coppersurfer.tk%3A6969","udp%3A%2F%2Fexodus.desync.com%3A6969"],"infoHash":"6bf35d67143315d9c3144011582d5772b5c4cef6","infoHashBuffer":{"type":"Buffer","data":[107,243,93,103,20,51,21,217,195,20,64,17,88,45,87,114,181,196,206,246]},"announce":[],"urlList":[]}}